<?xml version="1.0" encoding="UTF-8"?>
<svg xmlns="http://www.w3.org/2000/svg" xmlns:xlink="http://www.w3.org/1999/xlink" width="80pt" height="80pt" viewBox="0 0 80 80" version="1.1">
<g id="surface23442948">
<path style=" stroke:none;fill-rule:nonzero;fill:rgb(92.941176%,92.941176%,92.941176%);fill-opacity:1;" d="M 8.414062 71 L 13.558594 65.851562 L 12.902344 65.144531 C 6.519531 58.285156 3 49.355469 3 40 C 3 19.597656 19.597656 3 40 3 C 41.550781 3 43.195312 3.125 45 3.378906 L 45 11.445312 C 43.320312 11.148438 41.644531 11 40 11 C 24.011719 11 11 24.011719 11 40 C 11 47.15625 13.675781 54.046875 18.53125 59.402344 L 19.234375 60.179688 L 25.003906 54.414062 L 25.003906 71 Z M 8.414062 71 "/>
<path style=" stroke:none;fill-rule:nonzero;fill:rgb(92.941176%,92.941176%,92.941176%);fill-opacity:1;" d="M 40 4 C 41.253906 4 42.574219 4.085938 44 4.257812 L 44 10.277344 C 42.660156 10.09375 41.320312 10 40 10 C 23.457031 10 10 23.457031 10 40 C 10 47.402344 12.765625 54.535156 17.789062 60.074219 L 19.199219 61.628906 L 24 56.828125 L 24 70 L 10.828125 70 L 14.949219 65.878906 L 13.636719 64.464844 C 7.421875 57.789062 4 49.101562 4 40 C 4 20.148438 20.148438 4 40 4 M 40 2 C 19.015625 2 2 19.015625 2 40 C 2 49.988281 5.867188 59.054688 12.171875 65.828125 L 6 72 L 26 72 L 26 52 L 19.269531 58.730469 C 14.773438 53.769531 12 47.222656 12 40 C 12 24.535156 24.535156 12 40 12 C 42.0625 12 44.066406 12.238281 46 12.660156 L 46 2.519531 C 44.039062 2.207031 42.046875 2 40 2 Z M 40 2 "/>
<path style=" stroke:none;fill-rule:nonzero;fill:rgb(92.941176%,92.941176%,92.941176%);fill-opacity:1;" d="M 40 77 C 38.449219 77 36.804688 76.875 35 76.621094 L 35 68.554688 C 36.679688 68.851562 38.355469 69 40 69 C 55.988281 69 69 55.988281 69 40 C 69 32.835938 66.328125 25.941406 61.476562 20.589844 L 60.773438 19.808594 L 55 25.585938 L 55 9 L 71.585938 9 L 66.425781 14.164062 L 67.078125 14.871094 C 73.476562 21.742188 77 30.667969 77 40 C 77 60.402344 60.402344 77 40 77 Z M 40 77 "/>
<path style=" stroke:none;fill-rule:nonzero;fill:rgb(92.941176%,92.941176%,92.941176%);fill-opacity:1;" d="M 69.171875 10 L 65.035156 14.136719 L 66.347656 15.550781 C 72.570312 22.238281 76 30.921875 76 40 C 76 59.851562 59.851562 76 40 76 C 38.746094 76 37.425781 75.914062 36 75.742188 L 36 69.722656 C 37.339844 69.90625 38.679688 70 40 70 C 56.542969 70 70 56.542969 70 40 C 70 32.585938 67.238281 25.453125 62.21875 19.917969 L 60.808594 18.363281 L 56 23.171875 L 56 10 L 69.171875 10 M 74 8 L 54 8 L 54 28 L 60.738281 21.261719 C 65.234375 26.222656 68 32.777344 68 40 C 68 55.464844 55.464844 68 40 68 C 37.9375 68 35.933594 67.761719 34 67.339844 L 34 77.480469 C 35.960938 77.792969 37.953125 78 40 78 C 60.984375 78 78 60.984375 78 40 C 78 30.015625 74.117188 20.960938 67.8125 14.1875 Z M 74 8 "/>
</g>
</svg>
